# xmcd CD database file
#
# Track frame offsets:
#	150
#	15808
#	37318
#	60332
#	95303
#	114982
#	139879
#	158762
#	168159
#	191941
#	211645
#	231713
#	249394
#	267640
#	287271
#	309285
#
# Disc length: 4565 seconds
#
# Revision: 0
# Processed by: cddbd v1.5.2PL0 Copyright (c) Steve Scherf et al.
# Submitted via: CDex 1.70beta2
#
DISCID=d411d310
DTITLE=Santana - IV
DYEAR=2016
DGENRE=Blues
TTITLE0=Yambu
TTITLE1=Shake_It
TTITLE2=Anywhere_You_Want_to_Go
TTITLE3=Fillmore_East
TTITLE4=Love_Makes_The_World_Go_Round_feat_Ronald_Isley
TTITLE5=Freedom_In_Your_Mind_feat_Ronald_Isley
TTITLE6=Choo_Choo
TTITLE7=All_Aboard
TTITLE8=Suen_os
TTITLE9=Caminando
TTITLE10=Blues_Magic
TTITLE11=Echizo
TTITLE12=Leave_Me_Alone
TTITLE13=You_And_I
TTITLE14=Come_As_You_Are
TTITLE15=Forgiveness
EXTD=YEAR: 2016
EXTT0=
EXTT1=
EXTT2=
EXTT3=
EXTT4=
EXTT5=
EXTT6=
EXTT7=
EXTT8=
EXTT9=
EXTT10=
EXTT11=
EXTT12=
EXTT13=
EXTT14=
EXTT15=
PLAYORDER=
